<svg xmlns="http://www.w3.org/2000/svg" viewBox="0 0 1920 1080" preserveAspectRatio="xMidYMid slice" aria-hidden="true">
  <path fill="#12a3dd" d="M1850.83 212.63L1399.57 73.86L1155.48 -1.2L1152.57 -2.09L1153.54 -1.2L1.13 -1.2L1.13 69.93L-3.07 69.93L-13.74 445.04L-5.59 445.04L-5.59 709.86L692.25 920.4C693.29 920.73 694.33 921.05 695.36 921.36C767.55 942.66 843.41 901.24 866.35 829.57L1102 120.47C1115.37 78.72 1160.05 55.71 1201.79 69.08L1399.57 132.39L1399.57 131.69L1832.83 270.54C1848.82 275.51 1865.82 266.58 1870.79 250.59C1875.76 234.59 1866.82 217.6 1850.83 212.63"/>
  <path fill="#13aee1" d="M-3.07 -4.95L-3.07 598.25L669.47 813.55C743.07 837.11 821.84 796.55 845.4 722.94L1078.43 -4.95L-3.07 -4.95"/>
  <path fill="#1cc3ea" d="M-3.07 -4.95L-3.07 530.47L664.77 736.12C716.85 752.16 772.58 724.55 789.25 674.45L1015.36 -4.95L-3.07 -4.95"/>
  <path fill="#1cc3ea" d="M1764.65 127.15L1346.31 -2.87L1141.97 -2.87L1746.65 185.06C1762.64 190.03 1779.64 181.09 1784.61 165.1C1789.58 149.11 1780.64 132.12 1764.65 127.15"/>
  <path fill="#73e6f9" d="M1712.65 48.11L1544.23 -4.24L1339.89 -4.24L1694.65 106.02C1710.64 110.99 1727.64 102.05 1732.61 86.06C1737.58 70.07 1728.64 53.08 1712.65 48.11"/>
  <path fill="#a4f4fc" d="M1543.38 -2.16L1657.21 33.22C1673.2 38.19 1690.2 29.25 1695.17 13.26C1696.78 8.08 1696.92 2.79 1695.84 -2.16L1543.38 -2.16"/>
  <path fill="#1cc3ea" d="M606.27 862.04L-5.59 664.65L-5.59 755.58L580.6 942.55C602.83 949.64 626.6 937.37 633.69 915.13C640.78 892.9 628.5 869.13 606.27 862.04"/>
  <path fill="#73e6f9" d="M433.74 868.24L-5.15 730.24L-5.15 820.33L408.66 948.93C430.94 955.86 454.62 943.41 461.54 921.13C468.47 898.84 456.02 875.16 433.74 868.24"/>
  <path fill="#a4f4fc" d="M281.57 880.18L-5.59 789.89L-5.59 879.43L256.49 960.88C278.77 967.8 302.45 955.35 309.37 933.07C316.3 910.79 303.85 887.11 281.57 880.18"/>
  <path fill="#cafafc" d="M119.66 893.2L-5.59 853.82L-5.59 942.76L94.58 973.89C116.86 980.82 140.54 968.37 147.47 946.09C154.39 923.8 141.94 900.12 119.66 893.2"/>
</svg>
